<?xml version="1.0" encoding="UTF-8"?>
<svg version="1.1" xmlns="http://www.w3.org/2000/svg" width="269" height="211">
<path d="M0 0 C10.10357197 8.5131949 20.19889797 21.87071817 22.8359375 35.17578125 C23.62399396 37.7072777 24.97203166 38.61997861 27.03125 40.2578125 C37.31156937 48.95936854 45.08278207 60.22694011 46.40625 74.0078125 C47.37246441 90.59156521 44.55409824 104.61556533 34.06640625 117.9921875 C24.77890366 128.10369408 11.9378818 135.0505505 -1.88035774 136.19762802 C-4.28296294 136.27889164 -6.67830655 136.3009624 -9.08227539 136.29833984 C-9.98447815 136.30505707 -10.88668091 136.31177429 -11.81622314 136.31869507 C-14.77467488 136.33756305 -17.73289822 136.34159415 -20.69140625 136.34375 C-22.77013742 136.35018767 -24.84886771 136.35691673 -26.92759705 136.36392212 C-31.27914527 136.3758684 -35.63061428 136.37960587 -39.98217773 136.37841797 C-45.51718873 136.37821539 -51.05168277 136.40546637 -56.58657169 136.43996239 C-60.88069418 136.46237118 -65.17469523 136.46625119 -69.46887016 136.46519852 C-71.50711274 136.46753547 -73.54535966 136.47624942 -75.58354378 136.49186325 C-96.13985878 136.63454894 -112.72656166 134.0757342 -128.26953125 119.484375 C-136.57157595 110.63816267 -141.71110344 99.14420272 -142.59375 87.0078125 C-142.65691406 86.24726563 -142.72007812 85.48671875 -142.78515625 84.703125 C-143.44660404 70.32196982 -138.73448498 56.10844956 -129.2109375 45.3046875 C-123.49182692 39.45685096 -123.49182692 39.45685096 -120.59375 38.0078125 C-119.63160479 35.72606875 -118.75493857 33.45620669 -117.90625 31.1328125 C-110.56840321 12.06527166 -96.9271303 -2.70489053 -78.41796875 -11.44921875 C-51.80219566 -22.67871742 -22.63677183 -17.38667715 0 0 Z M-73.59375 26.0078125 C-74.86340507 28.09015872 -74.86340507 28.09015872 -75.59375 30.0078125 C-74.79453125 30.26433594 -73.9953125 30.52085938 -73.171875 30.78515625 C-63.86373907 34.02989378 -52.63414461 38.98157393 -47.59375 48.0078125 C-47.9172792 52.13100628 -50.37680989 54.14977349 -53.21484375 56.95703125 C-54.15005859 57.88708984 -55.08527344 58.81714844 -56.04882812 59.77539062 C-56.53810791 60.25435791 -57.0273877 60.7333252 -57.53149414 61.22680664 C-59.02950541 62.69360426 -60.51652682 64.17085984 -62.00195312 65.65039062 C-69.2854064 72.8536407 -69.2854064 72.8536407 -71.59375 74.0078125 C-71.83996094 73.24984375 -72.08617187 72.491875 -72.33984375 71.7109375 C-74.44813874 67.16595267 -78.20573851 65.18124944 -82.59375 63.0078125 C-88.00373791 61.35374525 -92.64243149 61.73899788 -97.80859375 63.98828125 C-102.78390147 66.82975896 -106.79285713 71.6051339 -108.59375 77.0078125 C-109.3916607 83.42529424 -108.81575054 88.01629906 -105.01953125 93.3203125 C-101.4520391 97.54265938 -97.3163154 100.63051088 -91.695364 101.20022392 C-89.36425436 101.28919523 -87.04058635 101.31234021 -84.70776367 101.31420898 C-83.37995125 101.32669426 -83.37995125 101.32669426 -82.02531433 101.33943176 C-79.10407082 101.36349196 -76.18305079 101.37229918 -73.26171875 101.37890625 C-71.22536656 101.38787584 -69.18901504 101.39699774 -67.15266418 101.40626526 C-62.88488159 101.42274716 -58.61717737 101.43045388 -54.34936523 101.43334961 C-48.89181741 101.43873151 -43.43501039 101.4764074 -37.97767162 101.52209377 C-33.77136065 101.55189753 -29.56522733 101.5590739 -25.35881996 101.56007576 C-23.34744182 101.5642717 -21.33606285 101.57668076 -19.32478905 101.59759331 C-16.50528513 101.62457536 -13.68748881 101.61966196 -10.86791992 101.60717773 C-10.04426941 101.62201202 -9.2206189 101.63684631 -8.37200928 101.65213013 C-1.59845095 101.56711042 3.27049334 99.19397682 8.0282259 94.35976315 C11.88469247 89.84685461 12.72581906 84.83524822 12.40625 79.0078125 C10.48977827 72.61957342 7.12370811 67.74236023 1.46875 64.1328125 C-1.79206828 62.93496089 -4.15484954 62.92172042 -7.59375 63.0078125 C-7.60792969 62.06421875 -7.62210937 61.120625 -7.63671875 60.1484375 C-8.11647876 47.23381659 -11.02622227 37.66640722 -20.26953125 28.1328125 C-34.80108812 14.84681764 -58.06311948 12.88378795 -73.59375 26.0078125 Z " fill="#3F80EA" transform="translate(185.59375,42.9921875)"/>
<path d="M0 0 C3.43886494 2.89418566 6.7524301 5.8933225 10 9 C9.67 9.66 9.34 10.32 9 11 C7.35 9.35 5.7 7.7 4 6 C0.33247995 7.5391801 -1.98580573 9.75485452 -4.765625 12.5703125 C-5.65507812 13.46621094 -6.54453125 14.36210938 -7.4609375 15.28515625 C-8.38132813 16.22230469 -9.30171875 17.15945312 -10.25 18.125 C-11.19484856 19.07988637 -12.14015633 20.03431859 -13.0859375 20.98828125 C-15.39518338 23.32109087 -17.69963203 25.65844086 -20 28 C-23.01741463 26.84461389 -25.62710945 25.63513632 -28.4375 24 C-37.76436191 19.36281725 -47.8004051 19.37307516 -57.71875 21.875 C-63.78871958 23.95613243 -69.38662483 26.57993724 -73 32 C-71.1128125 32.2784375 -71.1128125 32.2784375 -69.1875 32.5625 C-59.95874871 34.60039461 -51.45487153 41.2577174 -45.0625 48.0625 C-44 50 -44 50 -44.13110352 51.79589844 C-45.38379576 54.97356226 -47.42693136 56.79817176 -49.83984375 59.203125 C-50.56307579 59.9271048 -50.56307579 59.9271048 -51.30091858 60.66571045 C-52.31868554 61.68114221 -53.34013437 62.69289527 -54.36499023 63.70117188 C-55.93722139 65.24972559 -57.49562328 66.81125872 -59.05273438 68.375 C-66.72087692 76 -66.72087692 76 -69 76 C-69.556875 75.0925 -70.11375 74.185 -70.6875 73.25 C-73.8028711 68.87164061 -77.07362171 66.76843747 -82.171875 65.4296875 C-87.70988964 64.5321472 -92.10668581 65.22676504 -97 68 C-101.42828704 71.64103601 -104.50836068 75.48657753 -105.3203125 81.2890625 C-105.61145462 87.55832285 -104.38782566 92.68555143 -101 98 C-98.45236157 100.52858116 -98.45236157 100.52858116 -96 102 C-98.47936883 107.82844198 -103.48313987 111.89292125 -107.875 116.3125 C-108.78636719 117.25673828 -109.69773437 118.20097656 -110.63671875 119.17382812 C-111.95736328 120.50510742 -111.95736328 120.50510742 -113.3046875 121.86328125 C-114.10890137 122.68094971 -114.91311523 123.49861816 -115.74169922 124.34106445 C-118 126 -118 126 -120.15917969 125.875 C-128.49145346 121.91440727 -133.88037527 111.20901252 -137 103 C-141.51761039 87.71884063 -141.00680787 73.20694818 -134.4921875 58.625 C-130.67136787 51.65866839 -125.31395414 43.65697707 -118 40 C-117.03785479 37.71825625 -116.16118857 35.44839419 -115.3125 33.125 C-107.97465321 14.05745916 -94.3333803 -0.71270303 -75.82421875 -9.45703125 C-50.6193906 -20.09123613 -21.94970897 -16.15167264 0 0 Z " fill="#F1B404" transform="translate(183,41)"/>
<path d="M0 0 C3.43886494 2.89418566 6.7524301 5.8933225 10 9 C9.67 9.66 9.34 10.32 9 11 C7.35 9.35 5.7 7.7 4 6 C0.33247995 7.5391801 -1.98580573 9.75485452 -4.765625 12.5703125 C-6.09980469 13.91416016 -6.09980469 13.91416016 -7.4609375 15.28515625 C-8.38132812 16.22230469 -9.30171875 17.15945312 -10.25 18.125 C-11.19484856 19.07988637 -12.14015633 20.03431859 -13.0859375 20.98828125 C-15.39518338 23.32109087 -17.69963203 25.65844086 -20 28 C-23.01741463 26.84461389 -25.62710945 25.63513632 -28.4375 24 C-37.76436191 19.36281725 -47.8004051 19.37307516 -57.71875 21.875 C-63.78871958 23.95613243 -69.38662483 26.57993724 -73 32 C-71.1128125 32.2784375 -71.1128125 32.2784375 -69.1875 32.5625 C-60.62069767 34.45422291 -53.44060319 40.25567823 -47 46 C-47.495 46.99 -47.495 46.99 -48 48 C-48.59425781 47.48050781 -49.18851562 46.96101563 -49.80078125 46.42578125 C-61.24364535 36.79811488 -74.49598136 31.25338774 -89.59765625 31.6484375 C-103.51799465 33.08681919 -113.84094673 38.57200524 -123.8359375 48.01171875 C-126 50 -126 50 -129 52 C-127.60609461 48.84280428 -125.96365028 46.7187347 -123.5 44.3125 C-122.8915625 43.71050781 -122.283125 43.10851562 -121.65625 42.48828125 C-120 41 -120 41 -118 40 C-117.03785479 37.71825625 -116.16118857 35.44839419 -115.3125 33.125 C-107.97465321 14.05745916 -94.3333803 -0.71270303 -75.82421875 -9.45703125 C-50.6193906 -20.09123613 -21.94970897 -16.15167264 0 0 Z " fill="#D63E30" transform="translate(183,41)"/>
<path d="M0 0 C0.92232422 0.63228516 0.92232422 0.63228516 1.86328125 1.27734375 C3.07564453 2.09912109 3.07564453 2.09912109 4.3125 2.9375 C5.11300781 3.48277344 5.91351563 4.02804688 6.73828125 4.58984375 C11.26552959 7.41253227 15.62531748 7.17035805 20.78588867 7.20532227 C21.68365524 7.21522186 22.58142181 7.22512146 23.50639343 7.23532104 C26.47689162 7.26693456 29.4474058 7.29169295 32.41796875 7.31640625 C34.47634804 7.3369759 36.53472311 7.35797238 38.59309387 7.37937927 C44.01326072 7.43459878 49.43346568 7.48400863 54.85369873 7.53222656 C60.38362016 7.58244243 65.91348617 7.63812806 71.44335938 7.69335938 C82.29552559 7.80093949 93.1477399 7.90238483 104 8 C102 10 102 10 100.05111694 10.24050903 C99.256138 10.23606781 98.46115906 10.23162659 97.64208984 10.22705078 C96.74130707 10.22689972 95.84052429 10.22674866 94.91244507 10.22659302 C93.93844757 10.21627045 92.96445007 10.20594788 91.9609375 10.1953125 C90.96494537 10.1924826 89.96895325 10.18965271 88.94277954 10.18673706 C85.75339882 10.1755184 82.56429622 10.15041081 79.375 10.125 C77.21614988 10.11497238 75.05729537 10.10584615 72.8984375 10.09765625 C67.59876429 10.07727289 62.29969443 10.0381273 57 10 C57 20.56 57 31.12 57 42 C73.17 42 89.34 42 106 42 C106 42.33 106 42.66 106 43 C93.88993637 43.09316084 81.77995965 43.16399714 69.66960907 43.20724869 C64.04474625 43.22801952 58.42013072 43.25614281 52.79541016 43.30175781 C47.35535797 43.34559323 41.91554188 43.36921584 36.47532654 43.37950897 C34.41194448 43.38683327 32.34857362 43.40113339 30.28529358 43.42292023 C-3.06282588 43.76067379 -3.06282588 43.76067379 -15 33 C-15 30 -15 30 -13.07226562 27.76342773 C-12.19248047 26.91208252 -11.31269531 26.0607373 -10.40625 25.18359375 C-9.94013306 24.726465 -9.47401611 24.26933624 -8.99377441 23.7983551 C-7.50278478 22.33742172 -6.0023236 20.88676934 -4.5 19.4375 C-2.99857448 17.98381876 -1.49945696 16.52803219 -0.00622559 15.06593323 C1.34783115 13.7407662 2.70987789 12.42377826 4.07226562 11.10717773 C6.22499756 9.23004749 6.22499756 9.23004749 6 7 C5.01 6.175 4.02 5.35 3 4.5 C2.01 3.675 1.02 2.85 0 2 C0 1.34 0 0.68 0 0 Z " fill="#2F944B" transform="translate(80,136)"/>
</svg>
