<?xml version="1.0" encoding="UTF-8"?>
<svg version="1.1" xmlns="http://www.w3.org/2000/svg" width="1563" height="260" viewBox="0 680 1563 260" preserveAspectRatio="xMidYMid meet">
<path d="M0 0 C3.04890239 2.07685678 5.9952885 4.27535548 8.9375 6.5 C10.6114106 7.74945999 12.28590381 8.99813978 13.9609375 10.24609375 C15.22115723 11.18751221 15.22115723 11.18751221 16.50683594 12.14794922 C20.33224781 14.98966235 24.19495791 17.77853285 28.0625 20.5625 C28.79678223 21.09206299 29.53106445 21.62162598 30.28759766 22.16723633 C34.07878825 24.9003333 37.87423145 27.62744101 41.671875 30.3515625 C46.12715014 33.55055637 50.56996806 36.76613964 55 40 C55.63905273 40.46567383 56.27810547 40.93134766 56.93652344 41.41113281 C67.72613737 49.32122192 77.35297942 57.2206499 80 71 C80.92975485 83.81842342 79.3229946 94.3185701 70.76171875 104.3515625 C65.20109904 109.68409456 58.78039065 113.90655901 52.45849609 118.27929688 C48.4153511 121.10909687 44.4614429 124.057482 40.5 127 C33.60446431 132.09697596 26.68362973 137.15682842 19.71679688 142.15600586 C15.85940379 144.92479648 12.0252875 147.71883347 8.22265625 150.5625 C7.43189697 151.14829834 6.6411377 151.73409668 5.82641602 152.33764648 C4.33208181 153.44557714 2.84371631 154.5616295 1.36303711 155.68774414 C-8.31710184 162.82495929 -18.80708209 166.18176888 -30.88671875 164.62890625 C-41.93287729 162.09191406 -50.18710144 156.14737528 -56.40625 146.7421875 C-61.77400097 137.50649834 -62.72739566 127.25506177 -60.23828125 116.80078125 C-56.01658397 104.56953973 -47.94998639 96.99744153 -37.5 89.875 C-36.05198958 88.87253125 -34.60407189 87.86992852 -33.15625 86.8671875 C-31.08740116 85.43956644 -29.01824213 84.01251112 -26.9453125 82.59082031 C-23.43015265 80.30300261 -23.43015265 80.30300261 -21 77 C-21.69867188 76.76539063 -22.39734375 76.53078125 -23.1171875 76.2890625 C-26.52263853 74.76629985 -29.23763967 72.69071341 -32.125 70.375 C-36.290239 67.08143084 -40.49433487 63.9446693 -44.875 60.9375 C-53.54444861 54.66921063 -59.25038115 46.63706329 -61 36 C-61.72183089 23.19169838 -61.14095179 14.30168225 -52.4140625 4.48046875 C-37.11138591 -11.24315525 -17.88054208 -10.88723086 0 0 Z " fill="#1F1F1E" transform="translate(300,704)"/>
<path d="M0 0 C8.7083442 6.65825483 13.88095053 14.9593379 15.65625 25.8671875 C16.6023416 36.96686933 13.53159241 46.91638385 6.546875 55.578125 C0.21831572 62.6016429 -7.66286064 67.80631499 -15.36376953 73.19628906 C-18.29725106 75.25712693 -21.21002165 77.34669205 -24.125 79.43359375 C-18.54608639 84.03555475 -12.84589981 88.3932428 -6.9375 92.55859375 C3.14536435 99.73143964 12.00270173 106.63881054 14.875 119.43359375 C16.89169369 131.74913096 14.68649072 141.88958039 7.875 152.43359375 C0.99238349 160.24491822 -7.7160449 165.34129599 -18.125 166.43359375 C-34.83406449 167.22507575 -46.5168626 157.76665919 -59.00683594 148.05712891 C-62.61457883 145.29185802 -66.30735721 142.64631011 -70 139.99609375 C-70.74846191 139.45718506 -71.49692383 138.91827637 -72.26806641 138.36303711 C-74.55269297 136.71846823 -76.83864284 135.07575565 -79.125 133.43359375 C-88.10133485 126.98639673 -97.06714947 120.52625524 -105.9375 113.93359375 C-106.91517334 113.21320923 -106.91517334 113.21320923 -107.91259766 112.47827148 C-117.45445819 105.34383014 -123.8888019 97.33650645 -126.125 85.43359375 C-126.41239303 81.73406169 -126.31090982 78.13538624 -126.125 74.43359375 C-126.16367188 73.69496094 -126.20234375 72.95632813 -126.2421875 72.1953125 C-126.27159815 64.15150036 -120.46616988 57.91893403 -115.125 52.43359375 C-111.07965181 48.71582517 -106.61934369 45.57795493 -102.125 42.43359375 C-101.02087674 41.64107355 -99.91801003 40.84679982 -98.81640625 40.05078125 C-96.52003406 38.39617532 -94.21629758 36.7526445 -91.90625 35.1171875 C-87.73416721 32.16122715 -83.58354235 29.17593915 -79.4375 26.18359375 C-78.68831299 25.6429126 -77.93912598 25.10223145 -77.16723633 24.54516602 C-71.46047331 20.41793728 -65.78930613 16.24382143 -60.125 12.05859375 C-57.79542613 10.34196725 -55.46506011 8.62643022 -53.13378906 6.91210938 C-51.42809959 5.65668212 -49.72543818 4.39714243 -48.0234375 3.13671875 C-33.25402843 -7.56310082 -15.87818872 -10.78820483 0 0 Z " fill="#1F1E1F" transform="translate(202.125,702.56640625)"/>
<path d="M0 0 C1.12921875 -0.0309375 2.2584375 -0.061875 3.421875 -0.09375 C12.23555039 1.27326904 19.30986405 6.69406068 26.25 12 C27.91475345 13.24951256 29.5801332 14.49819106 31.24609375 15.74609375 C32.07995605 16.37370605 32.91381836 17.00131836 33.77294922 17.64794922 C37.58624775 20.49909082 41.44694618 23.28283314 45.3125 26.0625 C46.0461377 26.59133789 46.77977539 27.12017578 47.53564453 27.66503906 C50.55330053 29.84008131 53.57267661 32.01272816 56.59228516 34.18505859 C61.14645315 37.46221644 65.69523081 40.74655821 70.23583984 44.04248047 C72.08551755 45.38097452 73.94239615 46.70879814 75.80078125 48.03515625 C83.72299635 53.78690146 91.47794558 59.71627853 94.25 69.5 C95.56353473 78.70814656 93.55510054 85.88097263 88.25 93.5 C82.81966651 99.16497753 75.70759298 102.51076822 67.875 102.9375 C56.23642812 102.36446335 48.03524477 94.86462551 39.24316406 88.02978516 C36.33842564 85.80035216 33.36520067 83.67519847 30.375 81.5625 C29.22639 80.74763892 28.07795637 79.9325292 26.9296875 79.1171875 C26.04361816 78.48828613 26.04361816 78.48828613 25.13964844 77.84667969 C20.81872939 74.76732704 16.52328548 71.6524056 12.22558594 68.54077148 C8.28712067 65.68994917 4.34221636 62.84903344 0.3828125 60.02734375 C-0.41415039 59.45733643 -1.21111328 58.8873291 -2.03222656 58.30004883 C-3.539593 57.22230382 -5.04918707 56.14766411 -6.56152344 55.0769043 C-15.54226745 48.64167772 -23.43214664 42.83409028 -25.75 31.5 C-26.65502882 23.40645652 -25.48682955 17.20004565 -20.75 10.5 C-14.93829694 4.16321493 -8.80206442 0.07965669 0 0 Z " fill="#4184F2" transform="translate(112.75,755.5)"/>
<path d="M0 0 C0.99386719 -0.02578125 1.98773438 -0.0515625 3.01171875 -0.078125 C10.58088346 0.67431268 16.17614419 4.19368992 22.1875 8.625 C22.91727051 9.15174316 23.64704102 9.67848633 24.39892578 10.22119141 C25.93669096 11.33243755 27.47165063 12.44757542 29.00390625 13.56640625 C31.24508764 15.20083802 33.495529 16.82146326 35.75 18.4375 C44.27747661 24.55704146 52.75004682 30.74993155 61.17797852 37.00585938 C65.18287981 39.97263667 69.21059825 42.89385283 73.30078125 45.7421875 C74.1103125 46.31066406 74.91984375 46.87914062 75.75390625 47.46484375 C77.2790963 48.53272805 78.81117448 49.59087636 80.3515625 50.63671875 C87.05585523 55.35086893 92.47233911 61.03578781 94.3125 69.25 C95.29824111 78.38529841 94.45967932 85.84577409 88.8046875 93.21484375 C83.11994514 99.46806035 76.80352787 102.40187941 68.375 102.8125 C58.79490978 103.04155982 50.57397307 96.30179405 43.3125 90.75 C41.64646622 89.4991566 39.97978398 88.2491765 38.3125 87 C37.47847656 86.37222656 36.64445312 85.74445313 35.78515625 85.09765625 C31.99593485 82.26621593 28.1555438 79.5076946 24.3125 76.75 C17.25060171 71.66754381 10.22418864 66.53887923 3.23779297 61.35302734 C-0.49071864 58.58781136 -4.23167604 55.85340191 -8.04296875 53.203125 C-22.86745184 42.82651509 -22.86745184 42.82651509 -24.6875 33.25 C-25.30200954 25.06997136 -25.51300962 18.11964911 -20.6875 11.25 C-20.11 10.363125 -19.5325 9.47625 -18.9375 8.5625 C-13.57813731 3.05426612 -7.6892208 0.11814424 0 0 Z " fill="#33A752" transform="translate(274.6875,706.75)"/>
<path d="M0 0 C0.78761719 0.54269531 1.57523437 1.08539062 2.38671875 1.64453125 C3.34964844 2.28003906 4.31257813 2.91554688 5.3046875 3.5703125 C6.39810035 4.36097298 7.48772975 5.15688294 8.57421875 5.95703125 C9.47019775 6.60321411 9.47019775 6.60321411 10.38427734 7.26245117 C13.91180658 9.81151206 17.40373188 12.40482311 20.8828125 15.01953125 C29.06244231 21.11859792 36.56682798 26.50601714 46.38671875 29.64453125 C42.90297418 33.30214108 39.36128151 36.24053525 35.19921875 39.14453125 C33.95920192 40.01631081 32.71964196 40.88874046 31.48046875 41.76171875 C30.49240234 42.45539551 30.49240234 42.45539551 29.484375 43.16308594 C25.70095158 45.83508469 21.95212475 48.55493056 18.19921875 51.26953125 C17.43150146 51.82237793 16.66378418 52.37522461 15.87280273 52.94482422 C12.58458349 55.31511318 9.30488731 57.69102548 6.078125 60.14453125 C-2.19665049 66.38791248 -9.00641904 70.05663999 -19.61328125 68.64453125 C-28.34620012 66.45151126 -34.31207653 61.73966774 -39.05078125 54.14453125 C-42.11292906 47.30129658 -41.80557289 38.78733261 -39.765625 31.69921875 C-34.60644631 20.26158193 -22.68942357 13.9995316 -12.71875 7.15966797 C-11.26593054 6.11419052 -9.85277941 5.0121121 -8.4765625 3.86767578 C-3.25632469 -0.44293804 -3.25632469 -0.44293804 0 0 Z " fill="#F7A900" transform="translate(290.61328125,789.35546875)"/>
<path d="M0 0 C7.05356682 4.06010187 12.35607396 10.12549198 14.625 18 C15.58243834 26.85967591 14.43325721 34.84058433 8.8125 41.9375 C4.06082664 46.97805916 -1.72380184 50.72453909 -7.40332031 54.62646484 C-10.89900877 57.06167327 -14.3214167 59.59662488 -17.75 62.125 C-19.02863992 63.06511221 -20.30728521 64.00521711 -21.5859375 64.9453125 C-22.50632813 65.62335938 -23.42671875 66.30140625 -24.375 67 C-30.19790777 63.85859193 -35.40003038 60.15389264 -40.6875 56.1875 C-42.38379808 54.93186398 -44.08040911 53.67665061 -45.77734375 52.421875 C-48.32455812 50.53156034 -50.85901478 48.62990807 -53.37890625 46.703125 C-59.56276395 42.09834134 -66.09431087 39.47634724 -73.375 37 C-69.52056729 32.88513265 -65.39287759 29.74189693 -60.75 26.5625 C-54.24635018 22.04873032 -47.84872986 17.41646223 -41.5 12.6875 C-15.09069376 -6.90787518 -15.09069376 -6.90787518 0 0 Z " fill="#E84234" transform="translate(192.375,709)"/>
<path d="M0 0 C0.78375 0.7425 1.5675 1.485 2.375 2.25 C0.8154735 6.07792868 -1.46131836 8.61359864 -4.625 11.25 C-7.57578681 10.89376819 -9.6744384 9.70185029 -12.1875 8.1875 C-17.86111961 5.30314589 -23.8527803 5.1119405 -29.9296875 6.9453125 C-35.73380171 9.55168831 -39.23397471 13.26923151 -41.9375 19.0625 C-43.58804075 26.71500713 -42.94769523 32.16483029 -39.09765625 39.08203125 C-35.93043689 43.74464861 -32.09503172 45.30027842 -26.8125 46.625 C-21.06242999 47.58478612 -15.9406854 47.18294324 -10.8359375 44.20703125 C-6.94650757 41.24684936 -5.9155129 38.83102581 -3.625 34.25 C-10.225 34.25 -16.825 34.25 -23.625 34.25 C-23.625 30.62 -23.625 26.99 -23.625 23.25 C-12.735 23.25 -1.845 23.25 9.375 23.25 C9.375 35.80679868 8.85737728 43.5279216 0.4375 52.4921875 C-7.76444672 59.482483 -17.17551259 61.00945131 -27.625 60.25 C-37.24667906 58.55796106 -45.3239577 53.68022067 -51.41015625 46.04296875 C-56.67550495 38.27192356 -57.41864069 29.39363495 -56.625 20.25 C-54.44492065 10.85697239 -50.05983036 3.40937748 -42.125 -2.125 C-29.27927808 -10.05154078 -11.88885272 -9.80064674 0 0 Z " fill="#1E1E1E" transform="translate(475.625,717.75)"/>
<path d="M0 0 C0.804375 0.7425 1.60875 1.485 2.4375 2.25 C0.8779735 6.07792868 -1.39881836 8.61359864 -4.5625 11.25 C-7.51328681 10.89376819 -9.6119384 9.70185029 -12.125 8.1875 C-17.81664459 5.29398236 -23.7587549 5.16045267 -29.8671875 6.91015625 C-34.93331439 9.11822288 -37.95317399 12.42330682 -40.5625 17.25 C-42.48207414 23.00872241 -42.69248497 29.92868904 -40.7265625 35.70703125 C-37.5321856 41.31326991 -32.7388336 45.01737339 -26.55078125 46.84375 C-21.48493901 47.71957341 -17.43080427 46.76635707 -12.5625 45.25 C-11.61375 44.96125 -10.665 44.6725 -9.6875 44.375 C-7.07860899 42.99382241 -6.60219705 41.96920767 -5.5625 39.25 C-4.9025 37.93 -4.2425 36.61 -3.5625 35.25 C-9.8325 34.92 -16.1025 34.59 -22.5625 34.25 C-22.5625 30.62 -22.5625 26.99 -22.5625 23.25 C-12.0025 23.25 -1.4425 23.25 9.4375 23.25 C11.74748074 30.17994222 10.10633537 36.67824372 7.4375 43.25 C3.26171237 51.2346121 -1.72849026 56.10383182 -10.25 59.0625 C-20.50980987 61.78703221 -30.47176441 60.7837054 -39.9375 56.06640625 C-47.80346784 51.37605718 -53.2560349 44.12934922 -55.5625 35.25 C-56.56262097 23.48113463 -56.02667087 13.56271412 -48.4375 4 C-35.56789015 -9.55562317 -14.78653367 -12.13254045 0 0 Z " fill="#1E1E1E" transform="translate(1280.5625,717.75)"/>
<path d="M0 0 C37.8826087 0 37.8826087 0 47 9 C54.41463649 17.89756378 55.92719128 26.60879281 55 38 C53.49336616 46.78658728 49.39077657 52.60922343 43.1875 58.8125 C30.08100299 67.80715481 15.84108341 64 0 64 C0 42.88 0 21.76 0 0 Z M13 12 C13 25.2 13 38.4 13 52 C26.50403282 52.6124133 26.50403282 52.6124133 36.75 46.8125 C40.76307253 41.79615934 42.59333697 36.45407428 42.27734375 30.0078125 C41.38101147 23.51887174 39.10810794 19.19419693 33.87109375 15.1875 C27.13558051 10.91276926 21.13048617 12 13 12 Z " fill="#1E1E1E" transform="translate(759,712)"/>
<path d="M0 0 C2.3125 1.5625 2.3125 1.5625 3.3125 2.5625 C3.6425 1.5725 3.9725 0.5825 4.3125 -0.4375 C8.2725 -0.4375 12.2325 -0.4375 16.3125 -0.4375 C16.41178862 6.51843153 16.48416802 13.47394543 16.53222656 20.43041992 C16.55227282 22.79409985 16.57951719 25.15773061 16.61425781 27.52124023 C16.66308271 30.92964857 16.68553948 34.33739803 16.703125 37.74609375 C16.72377014 38.79333115 16.74441528 39.84056854 16.76568604 40.91954041 C16.76791468 48.29877508 15.7269694 54.82972902 10.59136963 60.44407654 C4.35810311 66.30819391 -2.18527827 66.95832383 -10.4921875 66.81640625 C-16.92395063 66.30532483 -22.006237 64.11001263 -26.6875 59.5625 C-28.5625 57 -28.5625 57 -29.6875 54.5625 C-28.6875 51.5625 -28.6875 51.5625 -26.98046875 50.578125 C-26.28566406 50.32546875 -25.59085938 50.0728125 -24.875 49.8125 C-23.84439453 49.41804687 -23.84439453 49.41804687 -22.79296875 49.015625 C-20.35622754 48.49120574 -19.00537771 48.68043237 -16.6875 49.5625 C-16.11 50.2225 -15.5325 50.8825 -14.9375 51.5625 C-11.82022107 54.3334146 -8.73284793 54.75698788 -4.6875 54.5625 C-1.00711293 53.33570431 0.73336358 52.56282655 2.6875 49.1875 C3.31829771 46.53814961 3.46749872 44.27497756 3.3125 41.5625 C2.2296875 42.5525 2.2296875 42.5525 1.125 43.5625 C-3.86431351 46.90855512 -9.95506564 46.16206584 -15.6875 45.5625 C-21.66057979 43.53591936 -25.71060223 39.50824516 -29 34.1875 C-32.10560893 27.51994776 -31.85339639 19.03981807 -30.02734375 12.02734375 C-24.69699441 0.05136405 -12.04536338 -4.69565013 0 0 Z M-16.5 14.25 C-18.21529235 17.59030616 -18.81645529 20.84428907 -18.6875 24.5625 C-17.28670583 28.27460454 -15.72587508 31.01741405 -12.6875 33.5625 C-8.08828655 35.0254879 -4.61321129 35.00010897 -0.25 32.9375 C3.49459539 29.4668994 4.16817218 27.15010602 4.625 22.125 C4.27058908 18.08471557 3.65076975 15.88133448 1.3125 12.5625 C-5.64123659 8.83728397 -10.50764636 8.67091213 -16.5 14.25 Z " fill="#1E1E1E" transform="translate(632.6875,730.4375)"/>
<path d="M0 0 C6.15172909 2.83473558 10.62279698 7.71050839 13.1015625 14.0703125 C14.93073038 22.2235802 14.50819054 30.91469252 10.60546875 38.31640625 C6.807964 42.83235784 1.69633872 47.59983331 -4.39453125 48.31640625 C-11.33289342 48.77138082 -15.20966106 47.40884134 -21.39453125 44.31640625 C-21.39453125 51.57640625 -21.39453125 58.83640625 -21.39453125 66.31640625 C-25.68453125 66.31640625 -29.97453125 66.31640625 -34.39453125 66.31640625 C-34.39453125 44.53640625 -34.39453125 22.75640625 -34.39453125 0.31640625 C-30.43453125 0.31640625 -26.47453125 0.31640625 -22.39453125 0.31640625 C-22.06453125 1.63640625 -21.73453125 2.95640625 -21.39453125 4.31640625 C-20.61078125 3.67703125 -19.82703125 3.03765625 -19.01953125 2.37890625 C-13.56238569 -1.90885098 -6.60853808 -1.88661364 0 0 Z M-19.39453125 14.31640625 C-22.27856092 18.6921754 -23.04440642 22.11740489 -22.39453125 27.31640625 C-20.3523643 31.10900201 -18.27672767 34.31984809 -14.39453125 36.31640625 C-9.39868902 36.86140722 -6.37945732 36.41579319 -2.39453125 33.31640625 C0.59705867 30.43165882 1.30062609 27.45714269 1.66796875 23.33984375 C1.53001683 18.87365044 -0.6606753 16.11316413 -3.58203125 12.94140625 C-8.93323996 9.84959677 -14.63158429 10.23388028 -19.39453125 14.31640625 Z " fill="#1E1E1E" transform="translate(1480.39453125,729.68359375)"/>
<path d="M0 0 C5.43723465 3.20570293 8.62175802 8.08309887 11 13.8125 C12.49718317 22.64588068 12.39810401 30.66037665 7.625 38.5 C3.10587144 43.69219026 -1.56710535 47.030513 -8.53515625 47.7109375 C-13.59117834 47.93039756 -17.00169178 47.27331741 -21.375 44.5 C-22.035 43.84 -22.695 43.18 -23.375 42.5 C-23.705 50.09 -24.035 57.68 -24.375 65.5 C-28.335 65.5 -32.295 65.5 -36.375 65.5 C-36.375 43.72 -36.375 21.94 -36.375 -0.5 C-32.415 -0.5 -28.455 -0.5 -24.375 -0.5 C-24.045 0.49 -23.715 1.48 -23.375 2.5 C-22.01375 1.51 -22.01375 1.51 -20.625 0.5 C-14.4199432 -3.02417019 -6.48497331 -2.78816511 0 0 Z M-22.375 14.5 C-24.91234465 18.76166689 -24.92959514 22.65595809 -24.375 27.5 C-22.64658115 31.68459301 -20.52677657 33.70718739 -16.375 35.5 C-12.05692054 36.04957375 -9.93171106 35.7941115 -6.0625 33.75 C-2.87802356 31.0839267 -1.64638141 29.23112772 -1.00390625 25.1328125 C-0.885699 20.6687503 -0.83185555 17.49264353 -3.75 13.9375 C-7.62476897 10.33950024 -9.9913131 10.15715706 -15.1171875 10.21484375 C-18.48876856 10.64066627 -20.11520743 12.03477174 -22.375 14.5 Z " fill="#1E1E1E" transform="translate(1094.375,730.5)"/>
<path d="M0 0 C5.10487097 3.09352995 8.85276424 7.56430223 10.4375 13.375 C11.79913175 22.29010474 11.79913175 22.29010474 10.4375 26.375 C-0.4525 26.375 -11.3425 26.375 -22.5625 26.375 C-20.24081136 32.36653554 -20.24081136 32.36653554 -16.3125 34.3125 C-12.08276111 35.51092602 -9.77130361 35.62205292 -5.5625 34.375 C-2.64363411 31.95863062 -2.64363411 31.95863062 -0.5625 29.375 C3.49031712 30.60027029 6.88110764 32.07380494 10.4375 34.375 C7.49517211 40.25965577 3.16785909 44.2416434 -2.875 46.75 C-11.5490406 48.22017637 -18.93098859 47.96811158 -26.47265625 43.15625 C-31.30798265 39.46045912 -34.06515016 35.27631995 -35.5625 29.375 C-36.71642408 20.68791114 -35.74574464 13.55879521 -30.5625 6.375 C-22.83197714 -2.0951173 -10.73111397 -4.91501403 0 0 Z M-19.5625 11.375 C-21.0475 13.85 -21.0475 13.85 -22.5625 16.375 C-15.6325 16.375 -8.7025 16.375 -1.5625 16.375 C-3.01362932 11.32772527 -3.01362932 11.32772527 -6.4375 9.5625 C-11.76348102 7.53862721 -14.86160146 8.47444558 -19.5625 11.375 Z " fill="#1E1E1E" transform="translate(1147.5625,730.625)"/>
<path d="M0 0 C5.10487097 3.09352995 8.85276424 7.56430223 10.4375 13.375 C11.79913175 22.29010474 11.79913175 22.29010474 10.4375 26.375 C-0.4525 26.375 -11.3425 26.375 -22.5625 26.375 C-20.24081136 32.36653554 -20.24081136 32.36653554 -16.3125 34.3125 C-12.08276111 35.51092602 -9.77130361 35.62205292 -5.5625 34.375 C-2.64363411 31.95863062 -2.64363411 31.95863062 -0.5625 29.375 C3.49031712 30.60027029 6.88110764 32.07380494 10.4375 34.375 C7.49517211 40.25965577 3.16785909 44.2416434 -2.875 46.75 C-11.5490406 48.22017637 -18.93098859 47.96811158 -26.47265625 43.15625 C-31.30798265 39.46045912 -34.06515016 35.27631995 -35.5625 29.375 C-36.71642408 20.68791114 -35.74574464 13.55879521 -30.5625 6.375 C-22.83197714 -2.0951173 -10.73111397 -4.91501403 0 0 Z M-19.5625 11.375 C-21.0475 13.85 -21.0475 13.85 -22.5625 16.375 C-15.6325 16.375 -8.7025 16.375 -1.5625 16.375 C-3.01362932 11.32772527 -3.01362932 11.32772527 -6.4375 9.5625 C-11.76348102 7.53862721 -14.86160146 8.47444558 -19.5625 11.375 Z " fill="#1E1E1E" transform="translate(716.5625,730.625)"/>
<path d="M0 0 C5.89487783 3.51449376 9.05113482 8.15908705 11.5625 14.4375 C11.5625 18.3975 11.5625 22.3575 11.5625 26.4375 C-4.7725 26.9325 -4.7725 26.9325 -21.4375 27.4375 C-18.27704273 33.21502114 -18.27704273 33.21502114 -15.2890625 34.56640625 C-11.28648122 35.34585629 -9.05051736 35.65726094 -5.125 34.25 C-2.83600187 32.70625707 -0.58540851 31.17234918 1.5625 29.4375 C6.0175 31.4175 6.0175 31.4175 10.5625 33.4375 C10.48259578 36.15424362 10.00423356 37.92385633 8.21875 40 C1.98040946 45.67121868 -4.40791565 48.10175055 -12.85546875 47.77734375 C-20.76180165 46.73672202 -26.0166557 43.63626126 -31.0625 37.53515625 C-35.53635692 30.70998249 -35.08975355 23.28962932 -34.4375 15.4375 C-32.79909651 8.76981996 -27.96793561 4.24804223 -22.4375 0.4375 C-15.76771877 -2.87530525 -6.8230406 -3.06905108 0 0 Z M-19.4375 12.4375 C-20.0975 13.7575 -20.7575 15.0775 -21.4375 16.4375 C-14.5075 16.4375 -7.5775 16.4375 -0.4375 16.4375 C-3.53229337 11.16990096 -3.53229337 11.16990096 -8.4375 8.4375 C-13.17779527 7.58667777 -15.78579735 9.51613788 -19.4375 12.4375 Z " fill="#1E1E1E" transform="translate(855.4375,730.5625)"/>
<path d="M0 0 C4.9589935 2.9670088 8.37166536 7.05583073 10.9375 12.1875 C11.83538749 16.85651497 11.5625 21.68293348 11.5625 26.4375 C-4.7725 26.9325 -4.7725 26.9325 -21.4375 27.4375 C-18.10186999 33.10738103 -18.10186999 33.10738103 -12.4375 35.4375 C-6.73444305 35.11563435 -2.58312182 33.44939208 1.5625 29.4375 C4.5325 31.0875 7.5025 32.7375 10.5625 34.4375 C9.2391817 40.06160279 5.21507805 42.53183333 0.5625 45.4375 C-5.64004094 48.40393262 -13.03683934 48.45601777 -19.5625 46.375 C-25.51893709 43.80152921 -30.11511057 39.69835934 -33.375 34.125 C-35.78925614 25.74611105 -36.26209561 18.48097943 -32.4375 10.4375 C-25.19121943 -0.6517948 -12.70941966 -5.63507858 0 0 Z M-21.4375 14.4375 C-21.4375 15.0975 -21.4375 15.7575 -21.4375 16.4375 C-14.5075 16.4375 -7.5775 16.4375 -0.4375 16.4375 C-3.53229337 11.16990096 -3.53229337 11.16990096 -8.4375 8.4375 C-13.86841742 7.62286239 -18.02890586 10.31130709 -21.4375 14.4375 Z " fill="#1E1E1E" transform="translate(959.4375,730.5625)"/>
<path d="M0 0 C5.49059532 3.771318 9.0547667 8.96098888 10.93359375 15.328125 C11.82895018 24.33143129 10.8294519 31.14521879 5.68359375 38.578125 C0.37753467 43.88418408 -5.25089314 46.43313924 -12.75390625 46.578125 C-20.93425663 46.4696962 -27.33294875 44.19491872 -33.06640625 38.328125 C-38.14312134 31.08729739 -38.99655445 24.00950816 -38.06640625 15.328125 C-35.96645574 8.58568302 -32.1969054 2.97928747 -26.06640625 -0.671875 C-17.71264177 -4.01799613 -8.07857382 -4.20975223 0 0 Z M-24.06640625 14.328125 C-26.03636181 18.26803613 -25.51948364 23.03319964 -25.06640625 27.328125 C-23.04619887 30.86348791 -20.982017 33.09750448 -17.06640625 34.328125 C-12.74504726 34.808276 -10.59956955 34.61985586 -6.75390625 32.515625 C-3.85817127 30.15863141 -2.2552866 28.59461744 -1.6953125 24.83984375 C-1.46195206 18.3002832 -1.46195206 18.3002832 -4.44140625 12.703125 C-8.29073648 9.22039765 -10.68835284 8.93616982 -15.73828125 8.96875 C-19.65644861 9.57356778 -21.36999441 11.49689257 -24.06640625 14.328125 Z " fill="#1E1E1E" transform="translate(1373.06640625,731.671875)"/>
<path d="M0 0 C5.60539159 3.41821321 10.07206425 8.12507938 12.4375 14.3125 C14.320549 22.65171702 13.58737565 30.26048337 9.02734375 37.57421875 C4.25335627 43.67995688 -1.45693302 46.55023806 -9.07421875 47.6875 C-16.32620507 48.051807 -22.97138681 46.24209234 -28.640625 41.6171875 C-33.94594688 36.11124421 -36.2773146 30.17456325 -36.72265625 22.58203125 C-36.46967145 15.40738229 -34.17976218 9.8115998 -29.5625 4.3125 C-21.51589847 -2.29178616 -9.68031738 -4.59907799 0 0 Z M-20.5625 13.3125 C-23.45118756 17.6953363 -24.13046579 21.10614695 -23.5625 26.3125 C-22.04257896 29.49709646 -20.27954041 32.04829966 -17.5625 34.3125 C-13.85647865 35.54784045 -11.46496386 35.76778745 -7.5625 35.3125 C-3.74040054 32.92557623 -1.00079689 30.62739068 0.4375 26.3125 C0.83191267 21.08653212 0.34299127 17.72083158 -2.5625 13.3125 C-6.0680242 10.30776497 -9.16379312 9.82908387 -13.63671875 10.03125 C-16.60033918 10.46407083 -18.29300794 11.36722109 -20.5625 13.3125 Z " fill="#1E1E1E" transform="translate(1036.5625,730.6875)"/>
<path d="M0 0 C5.60539159 3.41821321 10.07206425 8.12507938 12.4375 14.3125 C14.320549 22.65171702 13.58737565 30.26048337 9.02734375 37.57421875 C4.25335627 43.67995688 -1.45693302 46.55023806 -9.07421875 47.6875 C-16.32620507 48.051807 -22.97138681 46.24209234 -28.640625 41.6171875 C-33.94594688 36.11124421 -36.2773146 30.17456325 -36.72265625 22.58203125 C-36.46967145 15.40738229 -34.17976218 9.8115998 -29.5625 4.3125 C-21.51589847 -2.29178616 -9.68031738 -4.59907799 0 0 Z M-20.5625 13.3125 C-23.45118756 17.6953363 -24.13046579 21.10614695 -23.5625 26.3125 C-22.04257896 29.49709646 -20.27954041 32.04829966 -17.5625 34.3125 C-13.85647865 35.54784045 -11.46496386 35.76778745 -7.5625 35.3125 C-3.74040054 32.92557623 -1.00079689 30.62739068 0.4375 26.3125 C0.83191267 21.08653212 0.34299127 17.72083158 -2.5625 13.3125 C-6.0680242 10.30776497 -9.16379312 9.82908387 -13.63671875 10.03125 C-16.60033918 10.46407083 -18.29300794 11.36722109 -20.5625 13.3125 Z " fill="#1E1E1E" transform="translate(582.5625,730.6875)"/>
<path d="M0 0 C5.60539159 3.41821321 10.07206425 8.12507938 12.4375 14.3125 C14.320549 22.65171702 13.58737565 30.26048337 9.02734375 37.57421875 C4.25335627 43.67995688 -1.45693302 46.55023806 -9.07421875 47.6875 C-16.32620507 48.051807 -22.97138681 46.24209234 -28.640625 41.6171875 C-33.94594688 36.11124421 -36.2773146 30.17456325 -36.72265625 22.58203125 C-36.46967145 15.40738229 -34.17976218 9.8115998 -29.5625 4.3125 C-21.51589847 -2.29178616 -9.68031738 -4.59907799 0 0 Z M-20.5625 13.3125 C-23.45118756 17.6953363 -24.13046579 21.10614695 -23.5625 26.3125 C-22.04257896 29.49709646 -20.27954041 32.04829966 -17.5625 34.3125 C-13.85647865 35.54784045 -11.46496386 35.76778745 -7.5625 35.3125 C-3.74040054 32.92557623 -1.00079689 30.62739068 0.4375 26.3125 C0.83191267 21.08653212 0.34299127 17.72083158 -2.5625 13.3125 C-6.0680242 10.30776497 -9.16379312 9.82908387 -13.63671875 10.03125 C-16.60033918 10.46407083 -18.29300794 11.36722109 -20.5625 13.3125 Z " fill="#1E1E1E" transform="translate(527.5625,730.6875)"/>
<path d="M0 0 C4.29 0 8.58 0 13 0 C13.01458252 0.91813477 13.02916504 1.83626953 13.04418945 2.78222656 C13.10533515 6.19687909 13.17950217 9.61073672 13.26245117 13.02490234 C13.29565355 14.50103138 13.32370017 15.97728594 13.34643555 17.45361328 C13.38006951 19.57899332 13.43238519 21.70322804 13.48828125 23.828125 C13.51446533 25.1059082 13.54064941 26.38369141 13.56762695 27.70019531 C14.0201628 31.15387941 14.48056197 32.63005423 17 35 C20.90107265 35.56742875 23.0427347 35.67267291 26.3125 33.375 C29.48555389 28.90922046 30.24737595 24.33484421 30.4140625 18.9453125 C30.45273438 17.83671875 30.49140625 16.728125 30.53125 15.5859375 C30.57765625 13.87277344 30.57765625 13.87277344 30.625 12.125 C30.66367188 10.9596875 30.70234375 9.794375 30.7421875 8.59375 C30.83610006 5.72941703 30.9191235 2.86473069 31 0 C34.96 0 38.92 0 43 0 C43 15.18 43 30.36 43 46 C39.04 46 35.08 46 31 46 C30.67 45.01 30.34 44.02 30 43 C28.6078125 43.9590625 28.6078125 43.9590625 27.1875 44.9375 C22.48633843 47.97942807 18.50525709 48.55659768 13 48 C7.81836449 46.35914876 4.90256588 44.62260493 2 40 C0.06500514 35.28047925 -0.26824631 31.01241067 -0.1953125 25.9765625 C-0.1924826 25.23038666 -0.18965271 24.48421082 -0.18673706 23.71542358 C-0.17561687 21.35178012 -0.15052821 18.98852732 -0.125 16.625 C-0.11495962 15.01432842 -0.10583562 13.40365085 -0.09765625 11.79296875 C-0.0757044 7.86183056 -0.04123185 3.93098133 0 0 Z " fill="#1E1E1E" transform="translate(1392,730)"/>
<path d="M0 0 C4.95 0 9.9 0 15 0 C16.42726322 3.66500806 17.85247164 7.33071246 19.27246094 10.99853516 C19.99441847 12.86060415 20.71985238 14.72132407 21.4453125 16.58203125 C21.89648438 17.74863281 22.34765625 18.91523437 22.8125 20.1171875 C23.23144531 21.19597168 23.65039062 22.27475586 24.08203125 23.38623047 C25 26 25 26 25 28 C25.66 28 26.32 28 27 28 C27.12238037 27.28884033 27.24476074 26.57768066 27.37084961 25.8449707 C28.02182517 22.90130823 28.95536926 20.28153384 30.06640625 17.48046875 C30.6706543 15.9480957 30.6706543 15.9480957 31.28710938 14.38476562 C31.70798828 13.32966797 32.12886719 12.27457031 32.5625 11.1875 C32.98724609 10.11306641 33.41199219 9.03863281 33.84960938 7.93164062 C34.89599758 5.28627718 35.94750231 2.64293864 37 0 C41.62 0 46.24 0 51 0 C49.87490252 6.7505849 49.87490252 6.7505849 48.34179688 10.24536133 C48.00474731 11.02248978 47.66769775 11.79961823 47.32043457 12.60029602 C46.77510071 13.82875496 46.77510071 13.82875496 46.21875 15.08203125 C45.84520386 15.93681564 45.47165771 16.79160004 45.08679199 17.67228699 C44.29981398 19.4696893 43.50958824 21.26567273 42.71630859 23.06030273 C41.49769988 25.81770459 40.28904406 28.57930211 39.08203125 31.34179688 C38.3156775 33.08879328 37.54876991 34.83554686 36.78125 36.58203125 C36.41769409 37.41112503 36.05413818 38.24021881 35.67956543 39.09443665 C33.11705108 44.88294892 33.11705108 44.88294892 32 46 C29.81360547 46.07258946 27.62499611 46.08373783 25.4375 46.0625 C23.64119141 46.04896484 23.64119141 46.04896484 21.80859375 46.03515625 C20.88175781 46.02355469 19.95492187 46.01195312 19 46 C16.93299177 41.2186027 14.87018885 36.43541996 12.81103516 31.65063477 C12.11195481 30.02775819 11.41178587 28.40535004 10.71044922 26.78344727 C6.88479392 17.93423176 3.16542644 9.1128385 0 0 Z " fill="#1E1E1E" transform="translate(870,730)"/>
<path d="M0 0 C5.68086161 3.3375062 9.59227713 8.19149701 11.625 14.4375 C12.49522832 21.77372709 12.22291578 28.43205898 7.625 34.4375 C3.51958283 38.70484778 -0.52393379 42.13553979 -6.546875 42.7734375 C-20.02265692 42.92055302 -20.02265692 42.92055302 -25.375 38.4375 C-31.43877949 31.81398702 -32.74757959 26.65716278 -32.6484375 17.734375 C-32.11594608 11.3140499 -29.64085327 7.34481073 -24.9375 3.0625 C-18.06014168 -2.65001573 -8.16124024 -3.6639094 0 0 Z M-20.375 10.4375 C-23.28596205 13.53039717 -23.60906255 16.26309761 -23.8125 20.375 C-23.6500859 25.12031634 -22.67579948 27.87611109 -19.375 31.4375 C-15.03059324 34.56951418 -11.61626524 34.8092532 -6.4921875 34.015625 C-2.67195488 32.97246185 -0.29803641 30.95856001 1.734375 27.609375 C3.68799648 22.8452805 3.29188389 17.35479117 1.625 12.5625 C-1.21168684 9.54852023 -4.46825936 7.77973911 -8.375 6.4375 C-13.31817229 6.4375 -16.26852361 7.79575404 -20.375 10.4375 Z " fill="#E79D36" transform="translate(450.375,813.5625)"/>
<path d="M0 0 C2.98149775 1.58510007 4.06103239 3.15371989 5.375 6.25 C3.395 7.9 1.415 9.55 -0.625 11.25 C-1.12 10.775625 -1.615 10.30125 -2.125 9.8125 C-5.47901616 7.7162399 -8.72043605 7.09231569 -12.625 7.25 C-15.94305142 8.57429273 -15.94305142 8.57429273 -18.625 10.25 C-19.285 10.25 -19.945 10.25 -20.625 10.25 C-23.17711505 15.03521571 -23.30991078 19.96519462 -22.625 25.25 C-20.91303735 28.80073734 -19.69097467 30.61617723 -16.3125 32.625 C-11.30148462 33.79035241 -7.93138597 33.94016617 -3.3125 31.5 C-0.31474124 29.29402601 -0.31474124 29.29402601 1.375 25.25 C-2.915 25.25 -7.205 25.25 -11.625 25.25 C-11.625 22.94 -11.625 20.63 -11.625 18.25 C-4.365 18.25 2.895 18.25 10.375 18.25 C10.375 30.63961039 10.375 30.63961039 6.375 36.25 C1.40217239 41.09531921 -3.45254832 42.565634 -10.3125 42.75 C-17.45792517 42.64503048 -22.2173733 40.91685592 -27.625 36.25 C-32.68260266 30.62594584 -32.97925894 24.820805 -32.8984375 17.546875 C-32.36594608 11.1265499 -29.89085327 7.15731073 -25.1875 2.875 C-18.18123957 -2.94458523 -8.23569847 -3.82425487 0 0 Z " fill="#E79D36" transform="translate(794.625,813.75)"/>
<path d="M0 0 C3 1.5 3 1.5 5 3 C5.639375 2.505 6.27875 2.01 6.9375 1.5 C11.0359398 -0.50739908 14.50981588 -0.75649841 19 0 C21.87029869 1.79393668 23.49131638 2.98263276 25 6 C25.084915 7.8863912 25.107193 9.77578515 25.09765625 11.6640625 C25.09443359 12.78554688 25.09121094 13.90703125 25.08789062 15.0625 C25.07532227 16.8259375 25.07532227 16.8259375 25.0625 18.625 C25.05798828 19.80835938 25.05347656 20.99171875 25.04882812 22.2109375 C25.03701467 25.14067507 25.02054258 28.07031272 25 31 C22.36 31 19.72 31 17 31 C16.67 23.74 16.34 16.48 16 9 C14.02 9 12.04 9 10 9 C6.16436055 12.83563945 6.71647302 18.0729925 6.4375 23.25 C6.39431641 23.99507812 6.35113281 24.74015625 6.30664062 25.5078125 C6.20103275 27.338349 6.10005799 29.16915176 6 31 C3.36 31 0.72 31 -2 31 C-2.33 23.74 -2.66 16.48 -3 9 C-4.98 9 -6.96 9 -9 9 C-12.71196062 12.94939946 -12.53677219 17.67483483 -12.6875 22.8125 C-12.72166016 23.60076172 -12.75582031 24.38902344 -12.79101562 25.20117188 C-12.87299875 27.13363119 -12.93818845 29.06679035 -13 31 C-15.64 31 -18.28 31 -21 31 C-21 21.1 -21 11.2 -21 1 C-17.33333333 1 -13.66666667 1 -10 1 C-6.81558048 -0.59220976 -3.4662845 -0.3976617 0 0 Z " fill="#E79D36" transform="translate(615,824)"/>
<path d="M0 0 C4.29 0 8.58 0 13 0 C13 21.12 13 42.24 13 64 C8.71 64 4.42 64 0 64 C0 42.88 0 21.76 0 0 Z " fill="#1E1E1E" transform="translate(979,712)"/>
<path d="M0 0 C0.88945313 -0.00257813 1.77890625 -0.00515625 2.6953125 -0.0078125 C4.875 0.125 4.875 0.125 5.875 1.125 C5.94744053 3.14464199 5.95877188 5.16667124 5.9375 7.1875 C5.92847656 8.29222656 5.91945313 9.39695312 5.91015625 10.53515625 C5.89855469 11.38980469 5.88695312 12.24445312 5.875 13.125 C5.06675781 13.06699219 4.25851562 13.00898437 3.42578125 12.94921875 C-3.38484971 12.51847188 -3.38484971 12.51847188 -9.3125 15.4375 C-11.98861709 19.40553569 -12.28139302 22.419367 -12.44140625 27.10546875 C-12.48330078 28.26884766 -12.52519531 29.43222656 -12.56835938 30.63085938 C-12.60767578 31.84580078 -12.64699219 33.06074219 -12.6875 34.3125 C-12.73068359 35.53904297 -12.77386719 36.76558594 -12.81835938 38.02929688 C-12.92453014 41.06106192 -13.02527764 44.093016 -13.125 47.125 C-17.415 47.125 -21.705 47.125 -26.125 47.125 C-26.125 31.945 -26.125 16.765 -26.125 1.125 C-22.165 1.125 -18.205 1.125 -14.125 1.125 C-13.795 2.445 -13.465 3.765 -13.125 5.125 C-12.361875 4.485625 -11.59875 3.84625 -10.8125 3.1875 C-7.12375337 0.35660142 -4.52228335 -0.0131845 0 0 Z " fill="#1E1E1E" transform="translate(1325.125,728.875)"/>
<path d="M0 0 C5.1175787 2.55878935 7.73034148 5.53729495 9.6875 10.875 C10.67940761 17.61997174 9.87282312 22.42071419 6 28 C2.37008222 31.45706455 -0.31321821 32.23445473 -5.1875 32.3125 C-8.14441383 32.2261999 -10.16511195 31.94496268 -13 31 C-13 35.29 -13 39.58 -13 44 C-15.97 44 -18.94 44 -22 44 C-22 29.81 -22 15.62 -22 1 C-18.33333333 1 -14.66666667 1 -11 1 C-7.5259169 -0.73704155 -3.79843331 -0.46041616 0 0 Z M-13 12 C-14.20192801 16.13162753 -14.47358883 18.0725552 -12.5 21.9375 C-10.07466486 24.28214023 -10.07466486 24.28214023 -6.5 24.625 C-2.91609357 24.29464931 -2.91609357 24.29464931 -0.5625 21.875 C1.29055839 18.46537255 1.71588388 16.81804737 1 13 C-1.31737605 9.95430577 -2.77825913 8.26818702 -6.5625 7.4375 C-9.88922355 8.20520543 -11.00944778 9.22744513 -13 12 Z " fill="#E79D36" transform="translate(669,824)"/>
<path d="M0 0 C1 1 1 1 1.09765625 3.72265625 C1.08605469 4.82480469 1.07445312 5.92695312 1.0625 7.0625 C1.05347656 8.16722656 1.04445313 9.27195312 1.03515625 10.41015625 C1.02355469 11.26480469 1.01195312 12.11945312 1 13 C0.19175781 12.94199219 -0.61648438 12.88398437 -1.44921875 12.82421875 C-8.23901697 12.40502244 -8.23901697 12.40502244 -14.1875 15.25 C-16.93967298 19.42571073 -17.13970832 22.91183286 -17.31640625 27.859375 C-17.35830078 28.97441406 -17.40019531 30.08945312 -17.44335938 31.23828125 C-17.50233398 32.97658203 -17.50233398 32.97658203 -17.5625 34.75 C-17.60568359 35.92433594 -17.64886719 37.09867188 -17.69335938 38.30859375 C-17.79934717 41.20559355 -17.90016916 44.1027815 -18 47 C-21.96 47 -25.92 47 -30 47 C-30 31.82 -30 16.64 -30 1 C-26.04 1 -22.08 1 -18 1 C-17.67 1.99 -17.34 2.98 -17 4 C-16.05125 3.34 -15.1025 2.68 -14.125 2 C-9.59702096 -0.6258567 -5.11325094 -0.59752549 0 0 Z " fill="#1E1E1E" transform="translate(1197,729)"/>
<path d="M0 0 C2.98149775 1.58510007 4.06103239 3.15371989 5.375 6.25 C3.725 7.9 2.075 9.55 0.375 11.25 C-0.181875 10.96125 -0.73875 10.6725 -1.3125 10.375 C-2.075625 10.00375 -2.83875 9.6325 -3.625 9.25 C-4.388125 8.858125 -5.15125 8.46625 -5.9375 8.0625 C-10.48871755 6.68655051 -14.19598196 7.58312491 -18.4375 9.5625 C-21.41237155 11.85740091 -22.4334923 13.90053874 -22.9609375 17.6171875 C-23.04967442 23.31409775 -22.67224961 26.87459502 -18.625 31.25 C-14.7568518 33.79192596 -11.11526017 33.33393936 -6.69921875 32.75 C-4.45378694 32.35351522 -4.45378694 32.35351522 -2.375 30.5625 C-1.7975 30.129375 -1.22 29.69625 -0.625 29.25 C2 29.8125 2 29.8125 4.375 31.25 C5.5234375 33.33984375 5.5234375 33.33984375 6.375 35.25 C5.27581184 36.23475214 4.1704398 37.21260473 3.0625 38.1875 C2.44761719 38.73277344 1.83273437 39.27804687 1.19921875 39.83984375 C-2.42502146 42.64145128 -6.0157078 42.44349147 -10.4375 42.5 C-12.24154297 42.53867187 -12.24154297 42.53867187 -14.08203125 42.578125 C-20.56640474 41.97758765 -24.35981638 38.97628456 -28.625 34.25 C-33.59616798 28.21358174 -33.25055698 21.79242983 -32.625 14.25 C-30.96656181 8.05583326 -26.92827556 3.71201357 -21.625 0.25 C-14.92231251 -2.9903721 -6.78391956 -3.15011987 0 0 Z " fill="#E79D36" transform="translate(842.625,813.75)"/>
<path d="M0 0 C2.55969158 1.4104423 4.82848584 2.81092811 7.0625 4.6875 C5.76950306 7.57187779 4.40308637 9.55969421 2.0625 11.6875 C1.505625 11.39875 0.94875 11.11 0.375 10.8125 C-0.388125 10.44125 -1.15125 10.07 -1.9375 9.6875 C-2.68 9.295625 -3.4225 8.90375 -4.1875 8.5 C-8.00158157 7.37311226 -11.1209749 7.62907097 -14.9375 8.6875 C-18.23130799 10.62082208 -19.60790874 12.02831748 -21.3125 15.4375 C-22.34381965 20.80036216 -22.06669425 24.8963643 -19.125 29.5625 C-15.83524988 32.75825726 -14.10688985 33.58119183 -9.5 34 C-5.6907916 33.66585891 -4.05040979 32.79081742 -0.9375 30.6875 C1.375 30 1.375 30 3.0625 29.6875 C4.7125 31.6675 6.3625 33.6475 8.0625 35.6875 C1.05451091 41.73985421 -2.96160441 43.16941506 -12.453125 42.9921875 C-18.1531784 42.49375234 -21.70691619 40.99310345 -25.6796875 36.88671875 C-30.27762618 31.2217943 -32.25487561 25.96764739 -31.75 18.625 C-30.84004518 11.72189448 -28.28005737 7.19899289 -22.9375 2.6875 C-16.0859139 -2.10392809 -7.84382572 -3.16446188 0 0 Z " fill="#E79D36" transform="translate(918.9375,813.3125)"/>
<path d="M0 0 C1.8866883 1.53204764 2.62159401 3.04666044 3.55859375 5.265625 C1.90859375 6.915625 0.25859375 8.565625 -1.44140625 10.265625 C-1.99828125 9.976875 -2.55515625 9.688125 -3.12890625 9.390625 C-3.89203125 9.019375 -4.65515625 8.648125 -5.44140625 8.265625 C-6.20453125 7.87375 -6.96765625 7.481875 -7.75390625 7.078125 C-11.42819676 5.96729298 -13.73393187 6.28997385 -17.44140625 7.265625 C-20.85550862 9.38129917 -23.14026394 11.36219807 -24.44140625 15.265625 C-24.98928267 19.98095484 -24.86869214 23.39522782 -22.75390625 27.703125 C-19.34491056 31.48066076 -16.98977516 32.09671203 -12.00390625 32.640625 C-7.79909288 32.19801307 -5.87140108 30.62851033 -2.44140625 28.265625 C0.22063219 28.34168324 1.23224135 29.02930085 3.37109375 30.578125 C4.55859375 32.265625 4.55859375 32.265625 4.62109375 34.203125 C2.5805456 38.16418906 -1.35668535 39.90405137 -5.44140625 41.265625 C-12.88372087 41.92758437 -19.66186013 42.43202613 -25.828125 37.7578125 C-30.48628791 33.44929378 -34.00353207 29.12119247 -34.7421875 22.6171875 C-34.78064934 13.66839994 -32.62134892 7.73985065 -26.44140625 1.265625 C-18.54239463 -4.32148078 -8.4768581 -4.44109822 0 0 Z " fill="#E79D36" transform="translate(550.44140625,814.734375)"/>
<path d="M0 0 C3.96 0 7.92 0 12 0 C12 21.12 12 42.24 12 64 C8.04 64 4.08 64 0 64 C0 42.88 0 21.76 0 0 Z " fill="#1E1E1E" transform="translate(660,712)"/>
<path d="M0 0 C3.91075925 1.98968453 5.57689098 3.36533646 8 7 C8.22705078 9.54370117 8.22705078 9.54370117 8.1953125 12.54296875 C8.18886719 13.61611328 8.18242188 14.68925781 8.17578125 15.79492188 C8.15902344 16.91447266 8.14226563 18.03402344 8.125 19.1875 C8.11597656 20.31865234 8.10695313 21.44980469 8.09765625 22.61523438 C8.07406862 25.41036828 8.041153 28.20507845 8 31 C4.66666667 31 1.33333333 31 -2 31 C-2.66 31.33 -3.32 31.66 -4 32 C-8.71707604 32.50927724 -12.72792821 32.59709492 -17.0625 30.5625 C-19.84798594 26.8784702 -20.25289448 23.56025851 -20 19 C-18.99760897 15.92600083 -18.1111447 14.62947876 -15.296875 13.03515625 C-10.43996774 10.96045374 -6.23411826 10.71960081 -1 11 C-2.03568595 9.29264699 -2.03568595 9.29264699 -4 8 C-7.24070555 8.23568768 -10.11167243 8.69543055 -13.1875 9.75 C-15 10 -15 10 -17.25 8.5625 C-17.8275 8.046875 -18.405 7.53125 -19 7 C-18.01526648 4.14427279 -17.0416157 3.02987794 -14.5625 1.25 C-9.63246228 -0.4798378 -5.17143411 -0.70694196 0 0 Z M-11 20 C-10.67958603 22.60280568 -10.67958603 22.60280568 -10 25 C-6.62563814 25.33380814 -6.62563814 25.33380814 -3 25 C-0.97891823 23.2515605 -0.97891823 23.2515605 0 21 C0 20.34 0 19.68 0 19 C-3.78971948 17.10514026 -7.97870606 16.97870606 -11 20 Z " fill="#E79D36" transform="translate(579,824)"/>
<path d="M0 0 C3.59185108 1.91055909 4.69960643 3.19615935 6.12109375 7 C7.38962036 11.77332177 7.21679865 16.53333364 7.125 21.4375 C7.11597656 22.35982422 7.10695313 23.28214844 7.09765625 24.23242188 C7.07427829 26.48839498 7.0384142 28.74423283 7 31 C4.03 31 1.06 31 -2 31 C-2.33 23.74 -2.66 16.48 -3 9 C-8.53509123 8.4474163 -8.53509123 8.4474163 -10.84301758 10.22192383 C-12.27557405 12.42350829 -12.42389646 13.83211445 -12.51171875 16.44921875 C-12.54716797 17.29677734 -12.58261719 18.14433594 -12.61914062 19.01757812 C-12.65297852 20.33918945 -12.65297852 20.33918945 -12.6875 21.6875 C-12.73874023 23.02651367 -12.73874023 23.02651367 -12.79101562 24.39257812 C-12.87344467 26.59461121 -12.93840047 28.79728582 -13 31 C-15.97 31 -18.94 31 -22 31 C-22 21.1 -22 11.2 -22 1 C-18.33333333 1 -14.66666667 1 -11 1 C-7.52915109 -0.73542446 -3.7949121 -0.45959143 0 0 Z " fill="#E79D36" transform="translate(490,824)"/>
<path d="M0 0 C2.64 0 5.28 0 8 0 C8.01981934 0.55985596 8.03963867 1.11971191 8.06005859 1.6965332 C8.15537783 4.23565854 8.26502753 6.77396888 8.375 9.3125 C8.4059375 10.19357422 8.436875 11.07464844 8.46875 11.98242188 C8.50742187 12.82998047 8.54609375 13.67753906 8.5859375 14.55078125 C8.6173584 15.33106689 8.6487793 16.11135254 8.68115234 16.9152832 C8.89587889 19.30155768 8.89587889 19.30155768 11 22 C13.45672892 22.66685938 13.45672892 22.66685938 16 22 C19.50963517 17.70196852 19.53186931 13.49228313 19.6875 8.1875 C19.72166016 7.39923828 19.75582031 6.61097656 19.79101562 5.79882812 C19.87299875 3.86636881 19.93818845 1.93320965 20 0 C22.64 0 25.28 0 28 0 C28 9.9 28 19.8 28 30 C24.66666667 30 21.33333333 30 18 30 C17.34 30.33 16.68 30.66 16 31 C11.11147238 31.52778794 7.2334565 31.73000486 2.9375 29.1875 C-0.12434724 25.7305757 -0.12115841 22.89893996 -0.09765625 18.45703125 C-0.09443359 17.38388672 -0.09121094 16.31074219 -0.08789062 15.20507812 C-0.07951172 14.08552734 -0.07113281 12.96597656 -0.0625 11.8125 C-0.05798828 10.68134766 -0.05347656 9.55019531 -0.04882812 8.38476562 C-0.03703498 5.58979073 -0.0205765 2.7949218 0 0 Z " fill="#E79D36" transform="translate(684,825)"/>
<path d="M0 0 C2.63566309 1.02780684 3.86979973 2.03797343 6 4 C6.33 4.99 6.66 5.98 7 7 C2.5862069 10.0651341 2.5862069 10.0651341 -0.25 9.75 C-2 9 -2 9 -3 8 C-4.66617115 7.95936168 -6.33388095 7.957279 -8 8 C-8 8.66 -8 9.32 -8 10 C-7.09636719 10.30292969 -6.19273437 10.60585938 -5.26171875 10.91796875 C-3.49248047 11.54638672 -3.49248047 11.54638672 -1.6875 12.1875 C-0.51574219 12.59355469 0.65601563 12.99960937 1.86328125 13.41796875 C5.39454722 15.19899331 6.46395409 16.4030004 8 20 C8.07905181 24.42690138 7.44839308 26.41459793 4.75 29.9375 C0.01642167 33.42721833 -6.44569235 32.83418888 -12 32 C-15.49598625 30.30855236 -16.81945804 29.27081295 -19 26 C-19 25.01 -19 24.02 -19 23 C-16.56644121 21.46775928 -15.34278436 20.96655762 -12.4375 21.25 C-10 22 -10 22 -7 24 C-3.87478167 24.16699232 -3.87478167 24.16699232 -1 24 C-1.33 23.01 -1.66 22.02 -2 21 C-4.16555171 20.11670229 -4.16555171 20.11670229 -6.75 19.5625 C-10.98479278 18.41141183 -13.83453334 17.16546666 -17 14 C-18.44430855 11.11138291 -18.37688506 9.20352299 -18 6 C-12.59460557 -0.40112498 -8.08362052 -0.84251819 0 0 Z " fill="#E79D36" transform="translate(736,824)"/>
<path d="M0 0 C10.56 0 21.12 0 32 0 C32 2.64 32 5.28 32 8 C28.37 8 24.74 8 21 8 C21 19.22 21 30.44 21 42 C18.03 42 15.06 42 12 42 C12 30.78 12 19.56 12 8 C8.04 8 4.08 8 0 8 C0 5.36 0 2.72 0 0 Z " fill="#E79D36" transform="translate(852,813)"/>
</svg>
