<?xml version="1.0" encoding="UTF-8"?>
<svg version="1.1" xmlns="http://www.w3.org/2000/svg" width="500" height="500">
<path d="M0 0 C1.23363281 -0.02126953 1.23363281 -0.02126953 2.4921875 -0.04296875 C9.74335399 0.59177728 15.64037444 4.56871897 21.8125 8.125 C23.33955566 8.99680908 23.33955566 8.99680908 24.89746094 9.88623047 C27.97699209 11.64699204 31.05178056 13.41574892 34.125 15.1875 C34.99012207 15.68556152 35.85524414 16.18362305 36.74658203 16.69677734 C41.42720081 19.39371866 46.1006977 22.10275247 50.77050781 24.81835938 C54.92850336 27.23623982 59.08898042 29.6498286 63.25 32.0625 C64.00764648 32.50287598 64.76529297 32.94325195 65.54589844 33.39697266 C69.22979662 35.53330831 72.92626096 37.64113747 76.65234375 39.703125 C108.22860028 57.18088398 108.22860028 57.18088398 113.125 67.1875 C113.558125 67.97125 113.99125 68.755 114.4375 69.5625 C116.55209219 77.63639747 115.07551779 84.9326911 111.125 92.1875 C108.47396087 95.94787954 105.94397913 98.22247896 102 100.5625 C101.18341919 101.05061157 101.18341919 101.05061157 100.3503418 101.54858398 C98.28316003 102.77555463 96.20501534 103.98240828 94.125 105.1875 C93.22378418 105.71134277 92.32256836 106.23518555 91.39404297 106.77490234 C84.80451788 110.60041903 78.20089405 114.40118385 71.59326172 118.1953125 C66.05879084 121.37434125 60.52900252 124.56147248 55 127.75 C53.93571777 128.36351318 52.87143555 128.97702637 51.77490234 129.60913086 C43.20705602 134.55251934 34.66020801 139.53142202 26.12646484 144.53344727 C23.46330336 146.09181905 20.79604701 147.64268755 18.125 149.1875 C16.86840576 149.91598145 16.86840576 149.91598145 15.58642578 150.65917969 C14.79606934 151.10938477 14.00571289 151.55958984 13.19140625 152.0234375 C12.50119385 152.41837402 11.81098145 152.81331055 11.09985352 153.22021484 C6.05713037 155.6901455 0.6224324 155.96855597 -4.875 155.1875 C-12.21661565 152.60502213 -18.87161043 149.05647368 -22.875 142.1875 C-26.07440927 135.50674118 -27.146393 128.76041353 -25.1484375 121.57421875 C-23.25421879 116.37666741 -21.20359364 112.77706546 -16.875 109.1875 C-16.11437256 108.55360352 -15.35374512 107.91970703 -14.57006836 107.26660156 C-11.86970321 105.18341381 -9.15104301 103.48809601 -6.19140625 101.796875 C-4.56199097 100.86161987 -4.56199097 100.86161987 -2.8996582 99.9074707 C-1.757146 99.25738037 -0.61463379 98.60729004 0.5625 97.9375 C1.74215944 97.26234029 2.92160213 96.58680173 4.10083008 95.91088867 C7.43961388 93.99851449 10.78223982 92.09291538 14.125 90.1875 C15.65129906 89.31425182 17.17738516 88.44063114 18.703125 87.56640625 C21.84125813 85.76904965 24.98268425 83.97753642 28.125 82.1875 C30.45866367 80.8547439 32.79184498 79.52114652 35.125 78.1875 C32.91903308 74.87854963 31.05612541 74.05132985 27.54638672 72.38378906 C22.78749469 70.03265265 18.2592545 67.25459748 13.6875 64.5625 C11.55483948 63.30703346 9.42202602 62.05182668 7.2890625 60.796875 C6.24524414 60.18263672 5.20142578 59.56839844 4.12597656 58.93554688 C1.43995631 57.37095974 -1.26094023 55.84054108 -3.9765625 54.328125 C-20.95127225 44.81672975 -20.95127225 44.81672975 -24.8125 34.6875 C-27.12921221 26.20254153 -26.02018573 18.93518698 -21.875 11.1875 C-15.98025544 4.40669781 -9.05478038 0.0705201 0 0 Z " fill="#05A353" transform="translate(293.875,172.8125)"/>
<path d="M0 0 C6.71995135 3.83534201 11.9161958 9.40682655 14.25 16.875 C15.90154487 24.89678937 14.7152375 31.87307526 10.6875 39 C4.1835854 48.04973259 -7.56714059 53.15368576 -17.15625 58.30078125 C-21.28748066 60.52489677 -25.39494592 62.79051512 -29.5 65.0625 C-30.24854248 65.47419434 -30.99708496 65.88588867 -31.76831055 66.31005859 C-36.71956083 69.05207095 -41.54315898 71.95276381 -46.3125 75 C-44.89051034 77.84397932 -42.64630263 78.34510894 -39.87890625 79.671875 C-36.22586897 81.56233569 -32.78140686 83.76187578 -29.29492188 85.94042969 C-25.93551153 88.02803578 -22.54854093 90.00728857 -19.0625 91.875 C-14.15408225 94.51354562 -9.31723389 97.26190257 -4.5 100.0625 C-3.78231445 100.47419434 -3.06462891 100.88588867 -2.32519531 101.31005859 C6.82952091 106.66418051 11.55413957 111.57324317 14.6875 122 C16.21357709 130.2540865 12.99478121 137.50611702 8.5 144.3125 C2.81145302 149.74822267 -3.00596633 152.68222386 -10.921875 153.05859375 C-23.108781 152.75989507 -33.91000002 144.39327412 -43.8515625 138.08984375 C-47.62205463 135.75730528 -51.52774235 133.67839066 -55.42578125 131.56860352 C-68.43764871 124.49813257 -81.26180686 117.06887588 -94.0625 109.625 C-95.50629028 108.78775391 -95.50629028 108.78775391 -96.97924805 107.93359375 C-122.60728597 92.97557768 -122.60728597 92.97557768 -125.90234375 82.04296875 C-127.72693476 72.95476782 -125.16887559 65.6070574 -120.375 57.875 C-115.02425653 52.02728345 -106.98388561 48.47010207 -100.1015625 44.66796875 C-94.66228252 41.65767583 -89.30149931 38.51691365 -83.9375 35.375 C-81.79830702 34.12477764 -79.65898262 32.87478013 -77.51953125 31.625 C-76.46717285 31.01011719 -75.41481445 30.39523438 -74.33056641 29.76171875 C-67.8057036 25.95299767 -61.26884016 22.16524072 -54.72363281 18.39160156 C-53.04234685 17.42123603 -51.36208665 16.449092 -49.68261719 15.47558594 C-44.36593207 12.39469377 -39.03577718 9.34049148 -33.67773438 6.33203125 C-32.18790724 5.49300391 -30.70167255 4.64753374 -29.22070312 3.79296875 C-19.43637836 -1.82929299 -10.849675 -4.77843906 0 0 Z " fill="#4685F2" transform="translate(217.3125,175)"/>
<path d="M0 0 C6.71995135 3.83534201 11.9161958 9.40682655 14.25 16.875 C15.90154487 24.89678937 14.7152375 31.87307526 10.6875 39 C4.18563147 48.04688563 -7.57079758 53.16655589 -17.1640625 58.30078125 C-20.45820567 60.07863768 -23.72498282 61.90085338 -26.9909668 63.72973633 C-30.75655596 65.83484142 -34.53324284 67.91955908 -38.3125 70 C-39.91544922 70.88558594 -39.91544922 70.88558594 -41.55078125 71.7890625 C-42.85595703 72.48128906 -42.85595703 72.48128906 -44.1875 73.1875 C-44.90679687 73.57292969 -45.62609375 73.95835937 -46.3671875 74.35546875 C-48.86034734 75.18151568 -49.8694255 74.94983083 -52.3125 74 C-54.19336304 72.98550775 -56.0451083 71.91628288 -57.875 70.8125 C-61.85838116 68.44086359 -65.85434504 66.13299442 -69.9375 63.9375 C-73.49451225 62.02375597 -76.94622063 60.0092948 -80.375 57.875 C-89.76099026 52.24044029 -97.50019639 49.75003142 -108.4375 51.5 C-109.365625 51.7475 -109.365625 51.7475 -110.3125 52 C-107.5311621 48.99185254 -104.91370871 47.04570254 -101.28125 45.16796875 C-95.36152595 42.03832684 -89.58605059 38.70277985 -83.8125 35.3125 C-81.69154015 34.07138573 -79.57044486 32.83050289 -77.44921875 31.58984375 C-75.88953369 30.6769458 -75.88953369 30.6769458 -74.29833984 29.74560547 C-67.7863873 25.93853591 -61.25845563 22.15925352 -54.72363281 18.39160156 C-53.04234685 17.42123603 -51.36208665 16.449092 -49.68261719 15.47558594 C-44.36593207 12.39469377 -39.03577718 9.34049148 -33.67773438 6.33203125 C-32.18790724 5.49300391 -30.70167255 4.64753374 -29.22070312 3.79296875 C-19.43637836 -1.82929299 -10.849675 -4.77843906 0 0 Z " fill="#E9493C" transform="translate(217.3125,175)"/>
<path d="M0 0 C3.8091823 1.41543386 7.19389759 3.17902607 10.6875 5.25 C11.74195313 5.87261719 12.79640625 6.49523437 13.8828125 7.13671875 C16.61487114 8.76979139 19.33971464 10.41404049 22.0625 12.0625 C26.45655193 14.71310552 30.9349329 17.18076904 35.45703125 19.60546875 C37.21086194 20.56724687 38.94328951 21.56874809 40.65625 22.6015625 C47.44478876 26.65205729 54.48686714 26.72210126 62.125 25.5 C62.74375 25.335 63.3625 25.17 64 25 C61.73786526 27.47490306 59.44745997 29.02495856 56.51953125 30.64453125 C55.61549561 31.14903809 54.71145996 31.65354492 53.7800293 32.17333984 C52.80074463 32.7142627 51.82145996 33.25518555 50.8125 33.8125 C48.71014088 34.98685626 46.60860294 36.1626836 44.5078125 37.33984375 C43.42661133 37.94554199 42.34541016 38.55124023 41.23144531 39.17529297 C36.18669753 42.02392133 31.18579893 44.94585135 26.1875 47.875 C14.42457595 54.76096796 2.62526212 61.58222829 -9.18945312 68.37890625 C-11.66703084 69.80794691 -14.13955612 71.24510802 -16.609375 72.6875 C-17.26212402 73.06664551 -17.91487305 73.44579102 -18.58740234 73.83642578 C-20.21362413 74.78124243 -21.83741715 75.73023636 -23.4609375 76.6796875 C-28.73212747 79.42070629 -34.1520182 79.8308608 -40 79 C-47.34161565 76.41752213 -53.99661043 72.86897368 -58 66 C-61.19940927 59.31924118 -62.271393 52.57291353 -60.2734375 45.38671875 C-58.37921879 40.18916741 -56.32859364 36.58956546 -52 33 C-51.23937256 32.36610352 -50.47874512 31.73220703 -49.69506836 31.07910156 C-46.99470321 28.99591381 -44.27604301 27.30059601 -41.31640625 25.609375 C-40.23012939 24.98587158 -39.14385254 24.36236816 -38.0246582 23.7199707 C-36.882146 23.06988037 -35.73963379 22.41979004 -34.5625 21.75 C-33.38284056 21.07484029 -32.20339787 20.39930173 -31.02416992 19.72338867 C-27.68538612 17.81101449 -24.34276018 15.90541538 -21 14 C-19.47370094 13.12675182 -17.94761484 12.25313114 -16.421875 11.37890625 C-13.28374187 9.58154965 -10.14231575 7.79003642 -7 6 C-4.66633633 4.6672439 -2.33315502 3.33364652 0 2 C0 1.34 0 0.68 0 0 Z " fill="#F9BC11" transform="translate(329,249)"/>
<path d="M0 0 C0.66 0.33 1.32 0.66 2 1 C-1.3 4.3 -4.6 7.6 -8 11 C-8.33 10.34 -8.66 9.68 -9 9 C-7.87895467 7.68412059 -6.75303035 6.37239647 -5.625 5.0625 C-4.99851562 4.33160156 -4.37203125 3.60070312 -3.7265625 2.84765625 C-2 1 -2 1 0 0 Z " fill="#60C395" transform="translate(280,177)"/>
<path d="M0 0 C0.66 0.33 1.32 0.66 2 1 C0.88121617 2.17262904 -0.24523051 3.33795138 -1.375 4.5 C-2.00148438 5.1496875 -2.62796875 5.799375 -3.2734375 6.46875 C-5 8 -5 8 -7 8 C-5.50902342 4.2047869 -3.24299151 2.38957269 0 0 Z " fill="#89B1F2" transform="translate(103,228)"/>
<path d="M0 0 C-0.33 0.99 -0.66 1.98 -1 3 C-4.5625 4.1875 -4.5625 4.1875 -8 5 C-3.16129032 0 -3.16129032 0 0 0 Z " fill="#E79A96" transform="translate(115,222)"/>
</svg>
